<?xml version="1.0" encoding="UTF-8" standalone="no"?>
<!-- Created with Inkscape (http://www.inkscape.org/) -->

<svg
   version="1.1"
   id="svg2"
   viewBox="0 0 65.954474 51.821379"
   height="0.57579309in"
   width="0.73282748in"
   xml:space="preserve"
   xmlns="http://www.w3.org/2000/svg"
   xmlns:svg="http://www.w3.org/2000/svg"
   xmlns:rdf="http://www.w3.org/1999/02/22-rdf-syntax-ns#"
   xmlns:cc="http://creativecommons.org/ns#"
   xmlns:dc="http://purl.org/dc/elements/1.1/"><defs
     id="defs4"><style
       id="style72233">.cls-1{fill:#efcc00;}.cls-2{fill:#353535;}</style></defs><metadata
     id="metadata7"><rdf:RDF><cc:Work
         rdf:about=""><dc:format>image/svg+xml</dc:format><dc:type
           rdf:resource="http://purl.org/dc/dcmitype/StillImage" /></cc:Work></rdf:RDF></metadata><path
     d="m 46.894909,51.821381 a 2.4234402,2.4234402 0 0 0 0,-4.71103 h -9.20664 a 2.3555168,2.3555168 0 0 1 -2.35551,-2.35552 v -14.34118 a 3.1406892,3.1406892 0 0 1 5.10362,-2.4517 15.703446,15.703446 0 1 0 -2.31983,-22.2260799 L 24.197589,22.680751 a 10.992413,10.992413 0 1 1 0,-13.9546101 l 1.87895,2.2874401 a 2.3555213,2.3555213 0 0 0 3.64035,-2.9902801 l -1.87896,-2.2874298 a 15.703446,15.703446 0 1 0 0,19.9351499 L 41.756889,8.7261409 a 10.992413,10.992413 0 1 1 1.62389,15.5582601 7.8517232,7.8517232 0 0 0 -12.75906,6.12925 v 14.34118 a 2.3555168,2.3555168 0 0 1 -2.35552,2.35552 h -9.20663 a 2.4234402,2.4234402 0 0 0 0,4.71103 z"
     style="fill:#ffffff;fill-opacity:1;stroke:none;stroke-width:0.0806979;stroke-dasharray:none"
     id="path18" /></svg>
